<?xml version="1.0" encoding="UTF-8" standalone="no"?>
<!-- Created with Inkscape (http://www.inkscape.org/) -->

<svg
   width="106.40198mm"
   height="83.574791mm"
   viewBox="0 0 106.40198 83.574791"
   version="1.1"
   id="svg3683"
   xmlns="http://www.w3.org/2000/svg"
   xmlns:svg="http://www.w3.org/2000/svg">
  <defs
     id="defs3680">
    <clipPath
       clipPathUnits="userSpaceOnUse"
       id="clipPath7870">
      <path
         d="m 8150.97,5075.32 v -704.7 h 22.9 c 55.55,0 100.56,45.03 100.56,100.57 l -0.14,604.13 z"
         id="path7868" />
    </clipPath>
    <linearGradient
       x1="0"
       y1="0"
       x2="1"
       y2="0"
       gradientUnits="userSpaceOnUse"
       gradientTransform="matrix(1263.67,1263.67,1263.67,-1263.67,7818.92,4358.65)"
       spreadMethod="pad"
       id="linearGradient7882">
      <stop
         style="stop-opacity:1;stop-color:#3b0066"
         offset="0"
         id="stop7872" />
      <stop
         style="stop-opacity:1;stop-color:#3b0066"
         offset="0.0174114"
         id="stop7874" />
      <stop
         style="stop-opacity:1;stop-color:#009cff"
         offset="0.623658"
         id="stop7876" />
      <stop
         style="stop-opacity:1;stop-color:#00ffdd"
         offset="0.89268702"
         id="stop7878" />
      <stop
         style="stop-opacity:1;stop-color:#00ffdd"
         offset="1"
         id="stop7880" />
    </linearGradient>
    <clipPath
       clipPathUnits="userSpaceOnUse"
       id="clipPath7892">
      <path
         d="m 8387.83,4623.85 93.46,-253.23 h 43.06 v 172.87 l -136.52,338.07 z"
         id="path7890" />
    </clipPath>
    <linearGradient
       x1="0"
       y1="0"
       x2="1"
       y2="0"
       gradientUnits="userSpaceOnUse"
       gradientTransform="matrix(1354.67,1354.67,1354.67,-1354.67,7952.35,4122.35)"
       spreadMethod="pad"
       id="linearGradient7904">
      <stop
         style="stop-opacity:1;stop-color:#3b0066"
         offset="0"
         id="stop7894" />
      <stop
         style="stop-opacity:1;stop-color:#3b0066"
         offset="0.0174114"
         id="stop7896" />
      <stop
         style="stop-opacity:1;stop-color:#009cff"
         offset="0.623658"
         id="stop7898" />
      <stop
         style="stop-opacity:1;stop-color:#00ffdd"
         offset="0.89268702"
         id="stop7900" />
      <stop
         style="stop-opacity:1;stop-color:#00ffdd"
         offset="1"
         id="stop7902" />
    </linearGradient>
    <clipPath
       clipPathUnits="userSpaceOnUse"
       id="clipPath7914">
      <path
         d="m 8637.9,4495.23 161.07,438.21 v -562.82 h 122.42 v 704.7 h -89.21 c -41.23,0 -78.29,-25.18 -93.48,-63.52 l -100.8,-254.44 z"
         id="path7912" />
    </clipPath>
    <linearGradient
       x1="0"
       y1="0"
       x2="1"
       y2="0"
       gradientUnits="userSpaceOnUse"
       gradientTransform="matrix(1224.1,1224.1,1224.1,-1224.1,8135.69,4002.7)"
       spreadMethod="pad"
       id="linearGradient7926">
      <stop
         style="stop-opacity:1;stop-color:#3b0066"
         offset="0"
         id="stop7916" />
      <stop
         style="stop-opacity:1;stop-color:#3b0066"
         offset="0.0174114"
         id="stop7918" />
      <stop
         style="stop-opacity:1;stop-color:#009cff"
         offset="0.623658"
         id="stop7920" />
      <stop
         style="stop-opacity:1;stop-color:#00ffdd"
         offset="0.89268702"
         id="stop7922" />
      <stop
         style="stop-opacity:1;stop-color:#00ffdd"
         offset="1"
         id="stop7924" />
    </linearGradient>
    <linearGradient
       x1="0"
       y1="0"
       x2="1"
       y2="0"
       gradientUnits="userSpaceOnUse"
       gradientTransform="matrix(0,-126.84391,-126.84391,0,373.13123,220.93477)"
       spreadMethod="pad"
       id="linearGradient694">
      <stop
         style="stop-opacity:1;stop-color:#00f5ff"
         offset="0"
         id="stop688" />
      <stop
         style="stop-opacity:1;stop-color:#00f5ff"
         offset="0.02053929"
         id="stop690" />
      <stop
         style="stop-opacity:1;stop-color:#00e66a"
         offset="1"
         id="stop692" />
    </linearGradient>
    <clipPath
       clipPathUnits="userSpaceOnUse"
       id="clipPath7298">
      <path
         d="m 4680.44,6386.27 c 32.7,20.39 69.93,30.72 110.66,30.72 49,0 91.77,-12.16 127.13,-36.14 33.14,-22.59 58.35,-53.16 75.04,-90.98 h 129.86 c -19.67,70.77 -56.92,127.93 -110.87,170.06 l -0.02,0.02 c -57.42,44.95 -131.12,67.76 -219.07,67.76 -67.72,0 -127.95,-15.25 -179.01,-45.32 -50.93,-30.21 -90.96,-72.98 -118.95,-127.09 -20.43,-39.32 -33.63,-83.32 -39.31,-130.99 h 30.01 c 50.31,0 96.13,28.92 117.77,74.34 18.15,37.68 43.97,67.15 76.76,87.62 z"
         id="path7296" />
    </clipPath>
    <linearGradient
       x1="0"
       y1="0"
       x2="1"
       y2="0"
       gradientUnits="userSpaceOnUse"
       gradientTransform="matrix(1234.43,1234.43,1234.43,-1234.43,4263.09,5787.44)"
       spreadMethod="pad"
       id="linearGradient7310">
      <stop
         style="stop-opacity:1;stop-color:#3b0066"
         offset="0"
         id="stop7300" />
      <stop
         style="stop-opacity:1;stop-color:#3b0066"
         offset="0.0174114"
         id="stop7302" />
      <stop
         style="stop-opacity:1;stop-color:#009cff"
         offset="0.623658"
         id="stop7304" />
      <stop
         style="stop-opacity:1;stop-color:#00ffdd"
         offset="0.89268702"
         id="stop7306" />
      <stop
         style="stop-opacity:1;stop-color:#00ffdd"
         offset="1"
         id="stop7308" />
    </linearGradient>
    <clipPath
       clipPathUnits="userSpaceOnUse"
       id="clipPath7320">
      <path
         d="m 5123.13,6046.05 h -129.86 c -16.69,-37.83 -41.91,-68.42 -75.02,-90.97 -20.14,-13.7 -42.75,-23.54 -67.37,-29.39 -2.64,-0.63 -4.54,-2.94 -4.54,-5.66 V 5811.2 c 64.5,7.34 120.26,29.11 165.91,64.78 53.96,42.13 91.21,99.29 110.88,170.07 z"
         id="path7318" />
    </clipPath>
    <linearGradient
       x1="0"
       y1="0"
       x2="1"
       y2="0"
       gradientUnits="userSpaceOnUse"
       gradientTransform="matrix(1257.95,1257.95,1257.95,-1257.95,4516.04,5484.29)"
       spreadMethod="pad"
       id="linearGradient7332">
      <stop
         style="stop-opacity:1;stop-color:#3b0066"
         offset="0"
         id="stop7322" />
      <stop
         style="stop-opacity:1;stop-color:#3b0066"
         offset="0.0174114"
         id="stop7324" />
      <stop
         style="stop-opacity:1;stop-color:#009cff"
         offset="0.623658"
         id="stop7326" />
      <stop
         style="stop-opacity:1;stop-color:#00ffdd"
         offset="0.89268702"
         id="stop7328" />
      <stop
         style="stop-opacity:1;stop-color:#00ffdd"
         offset="1"
         id="stop7330" />
    </linearGradient>
    <clipPath
       clipPathUnits="userSpaceOnUse"
       id="clipPath7782">
      <path
         d="m 3564.81,3507.2 c 22.63,-21.96 34.08,-53.43 34.08,-93.58 0,-57.14 -24.64,-125.25 -142.04,-125.25 h -3.77 v -95.01 h 19.52 c 81.16,0 144.34,20.16 187.79,59.9 43.14,39.47 65.02,93.43 65.02,160.36 0,68.29 -21.23,122.99 -63.07,162.57 -41.93,39.66 -105.77,59.78 -189.74,59.78 h -258.06 c 0,-53.06 43.01,-96.07 96.07,-96.07 h 146.24 c 49.8,0 85.11,-10.7 107.96,-32.7 z"
         id="path7780" />
    </clipPath>
    <linearGradient
       x1="0"
       y1="0"
       x2="1"
       y2="0"
       gradientUnits="userSpaceOnUse"
       gradientTransform="matrix(966.254,966.254,966.254,-966.254,2933.57,2940.58)"
       spreadMethod="pad"
       id="linearGradient7794">
      <stop
         style="stop-opacity:1;stop-color:#3b0066"
         offset="0"
         id="stop7784" />
      <stop
         style="stop-opacity:1;stop-color:#3b0066"
         offset="0.0174114"
         id="stop7786" />
      <stop
         style="stop-opacity:1;stop-color:#009cff"
         offset="0.623658"
         id="stop7788" />
      <stop
         style="stop-opacity:1;stop-color:#00ffdd"
         offset="0.89268702"
         id="stop7790" />
      <stop
         style="stop-opacity:1;stop-color:#00ffdd"
         offset="1"
         id="stop7792" />
    </linearGradient>
    <clipPath
       clipPathUnits="userSpaceOnUse"
       id="clipPath7804">
      <path
         d="m 3214.54,2918.23 h 124.42 v 266.17 c 0,55.53 -45.02,100.55 -100.55,100.55 h -23.87 z"
         id="path7802" />
    </clipPath>
    <linearGradient
       x1="0"
       y1="0"
       x2="1"
       y2="0"
       gradientUnits="userSpaceOnUse"
       gradientTransform="matrix(981.13,981.13,981.13,-981.13,3025.4,2850.24)"
       spreadMethod="pad"
       id="linearGradient7816">
      <stop
         style="stop-opacity:1;stop-color:#3b0066"
         offset="0"
         id="stop7806" />
      <stop
         style="stop-opacity:1;stop-color:#3b0066"
         offset="0.0174114"
         id="stop7808" />
      <stop
         style="stop-opacity:1;stop-color:#009cff"
         offset="0.623658"
         id="stop7810" />
      <stop
         style="stop-opacity:1;stop-color:#00ffdd"
         offset="0.89268702"
         id="stop7812" />
      <stop
         style="stop-opacity:1;stop-color:#00ffdd"
         offset="1"
         id="stop7814" />
    </linearGradient>
  </defs>
  <g
     id="layer1"
     transform="translate(-61.0864,-108.03486)">
    <g
       id="g14774">
      <g
         id="g676"
         transform="matrix(0.67708864,0,0,-0.62837718,-138.35538,247.55658)">
        <g
           id="g678">
          <g
             id="g684">
            <g
               id="g686">
              <path
                 d="m 368.049,218.935 -12.808,-2.446 c -0.168,0.682 -0.781,1.19 -1.514,1.19 v 0 c -0.865,0 -1.565,-0.7 -1.565,-1.564 v 0 c 0,-0.244 0.062,-0.472 0.161,-0.678 v 0 l -13.756,-6.921 c -0.286,0.377 -0.734,0.623 -1.243,0.623 v 0 c -0.864,0 -1.565,-0.7 -1.565,-1.564 v 0 c 0,-0.294 0.087,-0.566 0.228,-0.801 v 0 l -9.091,-7.727 c -0.426,0.397 -0.992,0.644 -1.621,0.644 v 0 c -1.319,0 -2.388,-1.069 -2.388,-2.389 v 0 c 0,-0.756 0.357,-1.421 0.905,-1.859 v 0 l -6.25,-9.589 c -0.184,0.076 -0.385,0.118 -0.595,0.118 v 0 c -0.864,0 -1.564,-0.7 -1.564,-1.564 v 0 c 0,-0.505 0.243,-0.948 0.614,-1.235 v 0 l -4.3,-8.945 c -0.04,0.003 -0.079,0.013 -0.12,0.013 v 0 c -1.318,0 -2.388,-1.069 -2.388,-2.389 v 0 c 0,-1.136 0.795,-2.082 1.859,-2.324 v 0 l -1.064,-18.897 c -1.695,-0.204 -3.015,-1.632 -3.015,-3.383 v 0 c 0,-1.892 1.534,-3.424 3.425,-3.424 v 0 c 0.17,0 0.332,0.026 0.495,0.049 v 0 l 5.614,-17.678 c -0.266,-0.386 -0.423,-0.85 -0.423,-1.353 v 0 c 0,-1.32 1.069,-2.389 2.389,-2.389 v 0 c 0.022,0 0.044,0.006 0.067,0.007 v 0 l 6.851,-9.232 c -0.016,-0.086 -0.028,-0.175 -0.028,-0.266 v 0 c 0,-0.863 0.7,-1.564 1.565,-1.564 v 0 c 0.035,0 0.068,0.009 0.103,0.01 v 0 l 15.677,-11.535 c -0.045,-0.183 -0.075,-0.37 -0.075,-0.566 v 0 c 0,-1.319 1.069,-2.388 2.389,-2.388 v 0 c 0.721,0 1.358,0.325 1.796,0.829 v 0 l 14.334,-4.638 c -0.041,-0.212 -0.065,-0.428 -0.065,-0.652 v 0 c 0,-1.891 1.532,-3.424 3.424,-3.424 v 0 c 1.722,0 3.132,1.275 3.375,2.93 v 0 l 11.424,0.042 c 0.244,-1.06 1.189,-1.852 2.323,-1.852 v 0 c 1.319,0 2.388,1.07 2.388,2.389 v 0 c 0,0.078 -0.015,0.152 -0.023,0.23 v 0 l 15.385,4.956 c 0.439,-0.493 1.069,-0.81 1.781,-0.81 v 0 c 1.319,0 2.389,1.069 2.389,2.388 v 0 c 0,0.203 -0.033,0.398 -0.083,0.588 v 0 l 15.371,11.258 c 0.135,-0.031 0.273,-0.052 0.417,-0.052 v 0 c 1.027,0 1.861,0.834 1.861,1.861 v 0 c 0,0.207 -0.043,0.402 -0.104,0.587 v 0 l 6.655,8.908 c 0.015,0 0.028,-0.004 0.043,-0.004 v 0 c 1.319,0 2.388,1.069 2.388,2.389 v 0 c 0,0.514 -0.164,0.986 -0.441,1.376 v 0 l 5.527,17.336 c 0.222,-0.045 0.451,-0.069 0.686,-0.069 v 0 c 1.891,0 3.424,1.534 3.424,3.426 v 0 c 0,1.771 -1.351,3.212 -3.077,3.388 v 0 l -1.058,19.237 c 1.049,0.252 1.832,1.19 1.832,2.316 v 0 c 0,1.32 -1.071,2.389 -2.389,2.389 v 0 c -0.041,0 -0.079,-0.01 -0.121,-0.013 v 0 l -4.298,8.945 c 0.371,0.287 0.614,0.73 0.614,1.235 v 0 c 0,0.864 -0.701,1.564 -1.564,1.564 v 0 c -0.208,0 -0.405,-0.042 -0.587,-0.116 v 0 l -6.244,9.6 c 0.539,0.437 0.891,1.098 0.891,1.846 v 0 c 0,1.32 -1.07,2.389 -2.389,2.389 v 0 c -0.635,0 -1.207,-0.252 -1.634,-0.655 v 0 l -9.072,7.747 c 0.137,0.233 0.222,0.502 0.222,0.792 v 0 c 0,0.864 -0.701,1.564 -1.564,1.564 v 0 c -0.514,0 -0.966,-0.25 -1.251,-0.633 v 0 l -13.742,6.945 c 0.096,0.203 0.154,0.426 0.154,0.664 v 0 c 0,0.864 -0.701,1.564 -1.565,1.564 v 0 c -0.768,0 -1.404,-0.555 -1.536,-1.286 v 0 l -16.051,2.223 c -0.004,1.888 -1.535,3.419 -3.423,3.419 v 0 c -1.781,0 -3.226,-1.364 -3.392,-3.1 m -12.972,-3.596 c 0.018,0.031 0.035,0.063 0.052,0.095 v 0 l 12.96,2.475 c 0.223,-1.077 0.957,-1.962 1.932,-2.408 v 0 c -0.921,-3.23 -2.371,-8.306 -3.297,-11.564 v 0 c -0.261,-0.002 -0.507,-0.06 -0.732,-0.161 v 0 c -2.77,2.927 -8.6,9.109 -10.915,11.563 m 18.429,0.556 c 0.564,0.429 0.984,1.028 1.196,1.723 v 0 l 16.381,-2.246 c 0.006,-0.011 0.012,-0.023 0.017,-0.033 v 0 c -2.317,-2.458 -8.149,-8.64 -10.915,-11.563 v 0 c -0.231,0.104 -0.485,0.163 -0.754,0.163 v 0 c -0.133,0 -0.261,-0.014 -0.386,-0.04 v 0 c -1.616,3.081 -4.023,8.507 -5.539,11.996 m -0.896,-0.492 c 1.521,-3.499 3.906,-8.866 5.539,-11.98 v 0 c -0.277,-0.264 -0.472,-0.612 -0.544,-1.005 v 0 h -9.032 c -0.098,0.532 -0.423,0.98 -0.87,1.25 v 0 c 0.928,3.262 2.375,8.335 3.296,11.562 v 0 c 0.147,-0.019 0.29,-0.044 0.442,-0.044 v 0 c 0.411,0 0.803,0.083 1.169,0.217 m 8.356,-12.277 c 2.807,2.965 8.596,9.102 10.897,11.542 v 0 c 0.181,-0.075 0.38,-0.117 0.588,-0.117 v 0 c 0.024,0 0.046,0.005 0.07,0.007 v 0 l 3.788,-9.003 -15.12,-2.894 c -0.055,0.166 -0.125,0.324 -0.223,0.465 m -26.65,11.542 c 2.299,-2.44 8.088,-8.577 10.895,-11.542 v 0 c -0.097,-0.141 -0.167,-0.299 -0.221,-0.465 v 0 l -15.121,2.894 3.788,9.003 c 0.024,-0.002 0.046,-0.007 0.07,-0.007 v 0 c 0.209,0 0.407,0.042 0.589,0.117 m 39.369,-0.263 13.44,-6.78 -9.798,-1.876 z m -54.633,-6.78 13.441,6.78 -3.642,-8.656 z m 58.678,-2.831 9.846,1.884 c 0.047,-0.067 0.099,-0.129 0.155,-0.186 v 0 l -5.463,-12.489 z m -59.282,1.698 c 0.055,0.057 0.107,0.119 0.154,0.186 v 0 l 9.846,-1.884 -4.253,-10.112 c -0.171,0.037 -0.347,0.063 -0.53,0.063 v 0 c -0.026,0 -0.05,-0.007 -0.076,-0.007 v 0 z m 70.966,-0.373 9.282,-7.905 c -0.113,-0.273 -0.175,-0.572 -0.18,-0.886 v 0 l -14.699,-4.383 c -0.106,0.312 -0.305,0.579 -0.568,0.767 v 0 l 5.389,12.321 c 0.071,-0.01 0.142,-0.021 0.217,-0.021 v 0 c 0.198,0 0.385,0.039 0.559,0.107 m -81.753,-8.791 c -0.003,0.314 -0.066,0.613 -0.18,0.886 v 0 l 9.283,7.905 c 0.174,-0.068 0.362,-0.107 0.56,-0.107 v 0 c 0.073,0 0.145,0.011 0.216,0.021 v 0 l 5.053,-11.554 c -0.524,-0.264 -0.936,-0.71 -1.149,-1.262 v 0 z m 53.944,4.38 15.105,2.891 4.618,-10.978 c -0.071,-0.062 -0.136,-0.128 -0.195,-0.201 v 0 z m -36.493,-7.464 4.357,10.355 15.103,-2.891 -18.919,-8.031 c -0.147,0.221 -0.332,0.407 -0.541,0.567 m 23.364,7.159 h 9.225 c 0.272,-0.692 0.942,-1.184 1.73,-1.184 v 0 c 0.585,0 1.1,0.276 1.441,0.698 v 0 l 19.911,-8.45 c 0,-0.009 -0.004,-0.018 -0.004,-0.026 v 0 c 0,-0.864 0.7,-1.565 1.565,-1.565 v 0 c 0.104,0 0.203,0.011 0.302,0.031 v 0 l 9.927,-11.756 c -0.402,-0.427 -0.654,-1 -0.654,-1.633 v 0 c 0,-1.32 1.07,-2.389 2.389,-2.389 v 0 c 0.184,0 0.361,0.025 0.533,0.064 v 0 l 2.99,-9.814 c -0.39,-0.284 -0.649,-0.742 -0.649,-1.263 v 0 c 0,-0.716 0.484,-1.311 1.139,-1.498 v 0 l 0.571,-10.379 c -0.741,-0.222 -1.287,-0.9 -1.287,-1.715 v 0 c 0,-0.689 0.393,-1.281 0.963,-1.581 v 0 l -3.801,-12.519 c -0.006,0 -0.01,0.002 -0.016,0.002 v 0 c -0.991,0 -1.796,-0.805 -1.796,-1.797 v 0 c 0,-0.407 0.14,-0.777 0.366,-1.077 v 0 l -7.112,-9.593 c -0.345,0.192 -0.736,0.311 -1.16,0.311 v 0 c -1.319,0 -2.388,-1.069 -2.388,-2.387 v 0 c 0,-0.381 0.097,-0.736 0.255,-1.054 v 0 l -10.737,-6.85 c -0.286,0.381 -0.737,0.632 -1.25,0.632 v 0 c -0.864,0 -1.564,-0.701 -1.564,-1.564 v 0 c 0,-0.049 0.01,-0.095 0.015,-0.143 v 0 l -15.206,-2.639 c -0.169,1.154 -1.154,2.042 -2.353,2.042 v 0 c -1.203,0 -2.187,-0.891 -2.354,-2.047 v 0 l -12.674,2.595 c 0.008,0.063 0.019,0.126 0.019,0.192 v 0 c 0,0.863 -0.7,1.564 -1.564,1.564 v 0 c -0.513,0 -0.964,-0.251 -1.249,-0.631 v 0 l -10.737,6.849 c 0.158,0.319 0.254,0.673 0.254,1.054 v 0 c 0,1.318 -1.069,2.387 -2.388,2.387 v 0 c -0.423,0 -0.815,-0.119 -1.159,-0.311 v 0 l -7.113,9.593 c 0.227,0.3 0.366,0.67 0.366,1.077 v 0 c 0,0.992 -0.804,1.797 -1.796,1.797 v 0 c -0.005,0 -0.01,-0.002 -0.015,-0.002 v 0 l -3.802,12.519 c 0.571,0.3 0.963,0.892 0.963,1.581 v 0 c 0,0.815 -0.545,1.493 -1.287,1.715 v 0 l 0.53,9.631 c 1.074,0.234 1.878,1.187 1.878,2.331 v 0 c 0,0.841 -0.438,1.577 -1.096,2.003 v 0 l 2.97,9.743 c 0.705,0.152 1.233,0.779 1.233,1.528 v 0 c 0,0.207 -0.042,0.405 -0.115,0.586 v 0 l 10.179,12.054 c 0.251,-0.09 0.518,-0.148 0.801,-0.148 v 0 c 1.319,0 2.389,1.07 2.389,2.389 v 0 c 0,0.129 -0.019,0.251 -0.038,0.374 v 0 l 19.289,8.187 c 0.342,-0.422 0.858,-0.698 1.443,-0.698 v 0 c 0.787,0 1.457,0.492 1.728,1.184 m 35.538,-9.459 14.712,4.386 c 0.184,-0.413 0.48,-0.765 0.853,-1.015 v 0 l -2.2,-7.118 z m -77.416,3.371 c 0.374,0.25 0.67,0.602 0.854,1.015 v 0 l 13.84,-4.126 c 0.01,-0.166 0.037,-0.327 0.08,-0.482 v 0 l -12.574,-3.525 z m 94.892,-0.32 6.334,-9.725 -9.468,2.654 2.173,7.028 c 0.122,-0.019 0.245,-0.038 0.374,-0.038 v 0 c 0.204,0 0.399,0.033 0.587,0.081 m -96.801,0 c 0.188,-0.048 0.382,-0.081 0.586,-0.081 v 0 c 0.128,0 0.251,0.019 0.375,0.038 v 0 l 2.171,-7.028 -9.458,-2.651 z m 79.28,-4.091 13.111,-3.675 -2.278,-7.376 c -0.159,0.034 -0.324,0.053 -0.494,0.053 v 0 c -0.33,0 -0.645,-0.067 -0.931,-0.189 v 0 z m -72.322,-11.926 -2.549,8.251 12.763,3.576 c 0.044,-0.05 0.083,-0.104 0.13,-0.151 v 0 l -9.986,-11.825 c -0.111,0.064 -0.232,0.114 -0.358,0.149 m 85.019,-1.758 c 0.012,0.098 0.03,0.195 0.03,0.298 v 0 c 0,0.783 -0.382,1.472 -0.965,1.908 v 0 l 2.325,7.528 9.627,-2.697 c 0.037,-0.377 0.2,-0.717 0.457,-0.967 v 0 c -0.803,-1.585 -2.387,-4.706 -4.07,-8.005 v 0 c -2.859,0.75 -5.623,1.473 -7.404,1.935 m -98.628,6.07 c 0.257,0.251 0.421,0.59 0.457,0.967 v 0 l 9.626,2.697 2.487,-8.048 c -0.551,-0.242 -0.936,-0.791 -0.936,-1.431 v 0 c 0,-0.071 0.012,-0.14 0.021,-0.208 v 0 c -1.771,-0.459 -4.627,-1.206 -7.586,-1.982 v 0 c -1.681,3.299 -3.265,6.42 -4.069,8.005 m 107.036,-8.269 c 1.656,3.249 3.203,6.295 3.987,7.84 v 0 c 0.031,-0.003 0.062,-0.007 0.093,-0.01 v 0 l 3.935,-9.164 c -0.216,-0.177 -0.399,-0.388 -0.54,-0.63 v 0 c -1.919,0.504 -4.682,1.232 -7.475,1.964 m -111.987,-1.333 3.929,9.163 c 0.034,0.001 0.068,0.006 0.101,0.01 v 0 c 0.785,-1.545 2.33,-4.591 3.987,-7.84 v 0 c -2.794,-0.733 -5.556,-1.459 -7.475,-1.964 v 0 c -0.143,0.242 -0.326,0.454 -0.542,0.631 m 9.493,0.672 c 3.063,0.803 5.916,1.55 7.583,1.981 v 0 c 0.122,-0.115 0.262,-0.209 0.415,-0.28 v 0 l -2.927,-9.507 c -0.114,0.017 -0.228,0.035 -0.347,0.035 v 0 c -0.236,0 -0.459,-0.045 -0.674,-0.109 v 0 c -1.059,2.033 -2.56,4.96 -4.05,7.88 m 96.208,-8.684 -3.024,9.961 c 0.223,0.173 0.417,0.381 0.566,0.622 v 0 c 1.7,-0.44 4.39,-1.145 7.268,-1.899 v 0 c -1.713,-3.356 -3.442,-6.725 -4.491,-8.725 v 0 c -0.104,0.024 -0.209,0.038 -0.319,0.041 m 1.399,-2.169 c 0.081,0.188 0.125,0.392 0.125,0.609 v 0 c 0,0.368 -0.134,0.704 -0.347,0.971 v 0 c 1.071,2.039 2.874,5.555 4.638,9.01 v 0 c 2.703,-0.71 5.465,-1.436 7.632,-2.007 v 0 c -0.007,-0.079 -0.024,-0.157 -0.024,-0.238 v 0 c 0,-0.529 0.179,-1.013 0.47,-1.41 v 0 l -7.984,-11.499 z m -106.69,6.935 c 0.291,0.397 0.469,0.881 0.469,1.41 v 0 c 0,0.081 -0.015,0.159 -0.023,0.238 v 0 c 2.168,0.571 4.928,1.297 7.633,2.007 v 0 c 1.522,-2.985 3.077,-6.019 4.165,-8.105 v 0 c -0.503,-0.437 -0.825,-1.074 -0.825,-1.791 v 0 c 0,-0.504 0.157,-0.969 0.423,-1.354 v 0 l -3.857,-3.904 z m 111.925,-12.234 8.028,11.563 c 0.215,-0.118 0.445,-0.213 0.694,-0.261 v 0 l 1.058,-19.243 c -0.497,-0.098 -0.95,-0.31 -1.345,-0.598 v 0 z m -114.427,-7.597 1.039,18.899 c 0.249,0.048 0.478,0.143 0.693,0.261 v 0 l 8.028,-11.563 -8.212,-8.315 c -0.44,0.36 -0.965,0.615 -1.548,0.718 m 108.914,1.629 -0.574,10.428 c 0.059,0.024 0.114,0.057 0.169,0.088 v 0 l 4.603,-4.66 -4.089,-5.89 c -0.036,0.013 -0.073,0.023 -0.109,0.034 m -97.839,5.856 4.013,4.062 c 0.224,-0.134 0.466,-0.239 0.728,-0.294 v 0 l -0.539,-9.624 c -0.037,-0.01 -0.076,-0.021 -0.112,-0.034 v 0 z m 99.123,-7.639 c 0.001,0.022 0.006,0.044 0.006,0.067 v 0 c 0,0.406 -0.139,0.775 -0.366,1.076 v 0 l 4,5.76 8.304,-8.406 c -0.206,-0.272 -0.367,-0.576 -0.483,-0.902 v 0 z m -107.954,-1.304 8.106,8.207 4,-5.76 c -0.227,-0.301 -0.367,-0.67 -0.367,-1.076 v 0 c 0,-0.023 0.008,-0.045 0.008,-0.067 v 0 l -11.284,-2.368 c -0.098,0.384 -0.25,0.745 -0.463,1.064 m 107.208,-0.086 c 0.162,0.117 0.304,0.258 0.419,0.421 v 0 l 11.593,-2.433 c -0.002,-0.049 -0.014,-0.095 -0.014,-0.144 v 0 c 0,-0.468 0.094,-0.915 0.264,-1.32 v 0 l -9.274,-5.56 z m -107.051,-3.434 c 0.234,0.434 0.377,0.918 0.405,1.44 v 0 l 11.51,2.415 c 0.116,-0.163 0.259,-0.304 0.421,-0.421 v 0 l -2.988,-9.036 z m 102.318,-9.492 3.813,12.477 3.016,-9.122 -6.35,-3.805 c -0.13,0.178 -0.291,0.331 -0.479,0.45 m -92.079,3.355 3.015,9.118 3.79,-12.485 c -0.177,-0.117 -0.33,-0.267 -0.456,-0.438 v 0 z m -11.775,4.669 c 0.347,0.166 0.667,0.379 0.936,0.646 v 0 l 9.621,-5.767 -3.907,-11.817 c -0.014,0 -0.028,0.003 -0.041,0.003 v 0 c -0.414,0 -0.796,-0.114 -1.136,-0.299 v 0 z m 111.9,-5.121 9.487,5.687 c 0.277,-0.331 0.611,-0.607 0.991,-0.815 v 0 l -5.393,-16.985 c -0.339,0.185 -0.722,0.299 -1.136,0.299 v 0 c -0.014,0 -0.026,-0.003 -0.041,-0.003 v 0 z m -7.386,-5.176 c 0.109,0.232 0.175,0.488 0.175,0.761 v 0 c 0,0.029 -0.008,0.058 -0.009,0.087 v 0 l 6.33,3.794 3.808,-11.523 c -0.23,-0.11 -0.442,-0.253 -0.624,-0.428 v 0 z m -96.875,-6.881 3.811,11.523 6.328,-3.794 c -10e-4,-0.029 -0.009,-0.058 -0.009,-0.087 v 0 c 0,-0.273 0.066,-0.529 0.175,-0.762 v 0 l -9.68,-7.308 c -0.183,0.175 -0.395,0.318 -0.625,0.428 m 12.569,5.968 7.139,-9.665 c -0.144,-0.195 -0.253,-0.413 -0.332,-0.647 v 0 l -9.379,1.1 1.757,9.107 c 0.058,-0.006 0.114,-0.018 0.173,-0.018 v 0 c 0.228,0 0.442,0.046 0.642,0.123 m 74.887,-9.646 7.178,9.639 c 0.193,-0.071 0.4,-0.116 0.618,-0.116 v 0 c 0.061,0 0.117,0.012 0.174,0.018 v 0 l 1.757,-9.107 -9.379,-1.1 c -0.081,0.242 -0.198,0.465 -0.348,0.666 m 8.988,9.611 9.547,-7.207 c -0.106,-0.271 -0.17,-0.563 -0.17,-0.871 v 0 c 0,-0.029 0.008,-0.056 0.009,-0.084 v 0 l -7.636,-0.896 z m -95.095,-8.162 c 0.002,0.028 0.009,0.055 0.009,0.084 v 0 c 0,0.308 -0.063,0.6 -0.17,0.871 v 0 l 9.547,7.207 -1.748,-9.058 z m 98.592,-9.954 -1.556,8.059 7.703,0.902 c 0.225,-0.442 0.582,-0.801 1.022,-1.032 v 0 l -6.2,-8.323 c -0.271,0.217 -0.603,0.356 -0.969,0.394 m -99.872,7.929 c 0.44,0.231 0.797,0.59 1.022,1.032 v 0 l 7.703,-0.902 -1.615,-8.361 c -0.276,-0.044 -0.524,-0.161 -0.734,-0.329 v 0 z m 85.693,-3.218 c 1.136,0.101 2.034,0.989 2.152,2.12 v 0 l 9.461,1.109 1.567,-8.116 c -0.551,-0.27 -0.944,-0.801 -1.024,-1.434 v 0 h -13.309 z m -77.583,-5.191 1.626,8.42 9.46,-1.109 c 0.118,-1.131 1.017,-2.019 2.153,-2.12 v 0 l 1.152,-6.321 h -13.604 c -0.075,0.489 -0.371,0.899 -0.787,1.13 m 14.248,5.317 c 0.267,0.094 0.508,0.234 0.72,0.411 v 0 l 10.701,-6.858 h -10.245 z m 61.625,0.395 c 0.209,-0.169 0.443,-0.304 0.701,-0.395 v 0 l -1.176,-6.447 h -10.304 z m -1.568,-18.495 1.94,10.639 h 13.649 c 0.08,-0.173 0.186,-0.33 0.313,-0.469 v 0 l -14.869,-10.918 c -0.269,0.336 -0.621,0.596 -1.033,0.748 m -9.876,10.486 c 0.043,0.05 0.087,0.098 0.124,0.153 v 0 h 10.66 l -1.916,-10.503 c -0.242,-0.018 -0.476,-0.067 -0.694,-0.153 v 0 z m -46.905,-10.35 -1.915,10.503 h 10.66 c 0.036,-0.055 0.082,-0.103 0.125,-0.153 v 0 l -8.176,-10.503 c -0.218,0.086 -0.451,0.135 -0.694,0.153 m -17.147,10.208 c 0.084,0.089 0.154,0.189 0.216,0.295 v 0 h 13.984 l 1.939,-10.639 c -0.411,-0.152 -0.763,-0.412 -1.033,-0.748 v 0 z m 46.009,-2.759 c 0.011,0.032 0.02,0.065 0.031,0.097 v 0 l 15.72,2.727 c 0.078,-0.079 0.166,-0.149 0.258,-0.21 v 0 l -3.413,-7.03 z m -17.959,2.614 c 0.088,0.058 0.173,0.125 0.248,0.199 v 0 l 13.182,-2.726 -10.257,-4.011 z m 31.52,-7.367 3.46,7.125 c 0.046,0.005 0.093,0.006 0.138,0.014 v 0 l 8.216,-10.556 c -0.165,-0.17 -0.297,-0.368 -0.405,-0.582 v 0 z m -40.886,-3.417 8.217,10.556 c 0.044,-0.008 0.091,-0.009 0.137,-0.014 v 0 l 3.238,-6.666 -11.224,-4.389 c -0.102,0.187 -0.221,0.361 -0.368,0.513 m 12.984,3.332 10.329,4.037 c 0.123,-0.137 0.257,-0.263 0.409,-0.368 v 0 l -5.078,-12.201 c -0.282,0.074 -0.572,0.126 -0.876,0.126 v 0 c -0.229,0 -0.453,-0.024 -0.67,-0.066 v 0 z m 13.649,3.827 c 0.049,0.043 0.102,0.08 0.148,0.126 v 0 l 12.695,-4.449 -4.315,-8.888 c -0.09,0.01 -0.179,0.028 -0.271,0.028 v 0 c -0.248,0 -0.482,-0.049 -0.706,-0.119 v 0 z m -0.893,-0.481 7.56,-13.32 c -0.374,-0.337 -0.647,-0.781 -0.751,-1.294 v 0 l -11.409,-0.042 c -0.154,1.004 -0.738,1.86 -1.564,2.378 v 0 l 5.085,12.217 c 0.137,-0.025 0.277,-0.044 0.421,-0.044 v 0 c 0.23,0 0.448,0.044 0.658,0.105 m -25.18,-9 c 0.062,0.215 0.107,0.437 0.107,0.673 v 0 c 0,0.054 -0.012,0.104 -0.015,0.157 v 0 l 11.384,4.452 4.109,-8.46 c -0.591,-0.321 -1.071,-0.805 -1.387,-1.397 v 0 z m 35.568,-4.057 4.312,8.877 11.6,-4.065 c 0,-0.029 -0.008,-0.054 -0.008,-0.082 v 0 c 0,-0.236 0.045,-0.458 0.109,-0.673 v 0 l -15.195,-4.895 c -0.199,0.343 -0.479,0.631 -0.818,0.838"
                 style="fill:url(#linearGradient694);stroke:none"
                 id="path696" />
            </g>
          </g>
        </g>
      </g>
      <g
         id="g14742"
         transform="matrix(1.2354839,0,0,1.3254105,-65.080484,98.3458)">
        <g
           id="g14658"
           transform="translate(0,0.643935)">
          <g
             id="g7864"
             transform="matrix(0.03527778,0,0,-0.03527778,-185.42872,204.81008)">
            <g
               id="g7866"
               clip-path="url(#clipPath7870)">
              <path
                 d="m 8150.97,5075.32 v -704.7 h 22.9 c 55.55,0 100.56,45.03 100.56,100.57 l -0.14,604.13 h -123.32"
                 style="fill:url(#linearGradient7882);fill-opacity:1;fill-rule:nonzero;stroke:none"
                 id="path7884" />
            </g>
          </g>
          <g
             id="g7886"
             transform="matrix(0.03527778,0,0,-0.03527778,-185.42872,204.81008)">
            <g
               id="g7888"
               clip-path="url(#clipPath7892)">
              <path
                 d="m 8387.83,4623.85 93.46,-253.23 h 43.06 v 172.87 l -136.52,338.07 v -257.71"
                 style="fill:url(#linearGradient7904);fill-opacity:1;fill-rule:nonzero;stroke:none"
                 id="path7906" />
            </g>
          </g>
          <g
             id="g7908"
             transform="matrix(0.03527778,0,0,-0.03527778,-185.42872,204.81008)">
            <g
               id="g7910"
               clip-path="url(#clipPath7914)">
              <path
                 d="m 8637.9,4495.23 161.07,438.21 v -562.82 h 122.42 v 704.7 h -89.21 c -41.23,0 -78.29,-25.18 -93.48,-63.52 l -100.8,-254.44 v -262.13"
                 style="fill:url(#linearGradient7926);fill-opacity:1;fill-rule:nonzero;stroke:none"
                 id="path7928" />
            </g>
          </g>
        </g>
        <g
           id="g14716"
           transform="translate(0,0.9258646)">
          <g
             id="g7292"
             transform="matrix(0.03527778,0,0,-0.03527778,-20.38297,255.55693)">
            <g
               id="g7294"
               clip-path="url(#clipPath7298)">
              <path
                 d="m 4680.44,6386.27 c 32.7,20.39 69.93,30.72 110.66,30.72 49,0 91.77,-12.16 127.13,-36.14 33.14,-22.59 58.35,-53.16 75.04,-90.98 h 129.86 c -19.67,70.77 -56.92,127.93 -110.87,170.06 l -0.02,0.02 c -57.42,44.95 -131.12,67.76 -219.07,67.76 -67.72,0 -127.95,-15.25 -179.01,-45.32 -50.93,-30.21 -90.96,-72.98 -118.95,-127.09 -20.43,-39.32 -33.63,-83.32 -39.31,-130.99 h 30.01 c 50.31,0 96.13,28.92 117.77,74.34 18.15,37.68 43.97,67.15 76.76,87.62"
                 style="fill:url(#linearGradient7310);fill-opacity:1;fill-rule:nonzero;stroke:none"
                 id="path7312" />
            </g>
          </g>
          <g
             id="g7314"
             transform="matrix(0.03527778,0,0,-0.03527778,-20.38297,255.55693)">
            <g
               id="g7316"
               clip-path="url(#clipPath7320)">
              <path
                 d="m 5123.13,6046.05 h -129.86 c -16.69,-37.83 -41.91,-68.42 -75.02,-90.97 -20.14,-13.7 -42.75,-23.54 -67.37,-29.39 -2.64,-0.63 -4.54,-2.94 -4.54,-5.66 V 5811.2 c 64.5,7.34 120.26,29.11 165.91,64.78 53.96,42.13 91.21,99.29 110.88,170.07"
                 style="fill:url(#linearGradient7332);fill-opacity:1;fill-rule:nonzero;stroke:none"
                 id="path7334" />
            </g>
          </g>
        </g>
        <g
           id="g14708"
           transform="translate(0,-0.90416877)">
          <g
             id="g7776"
             transform="matrix(0.03527778,0,0,-0.03527778,56.816908,155.3511)">
            <g
               id="g7778"
               clip-path="url(#clipPath7782)">
              <path
                 d="m 3564.81,3507.2 c 22.63,-21.96 34.08,-53.43 34.08,-93.58 0,-57.14 -24.64,-125.25 -142.04,-125.25 h -3.77 v -95.01 h 19.52 c 81.16,0 144.34,20.16 187.79,59.9 43.14,39.47 65.02,93.43 65.02,160.36 0,68.29 -21.23,122.99 -63.07,162.57 -41.93,39.66 -105.77,59.78 -189.74,59.78 h -258.06 c 0,-53.06 43.01,-96.07 96.07,-96.07 h 146.24 c 49.8,0 85.11,-10.7 107.96,-32.7"
                 style="fill:url(#linearGradient7794);fill-opacity:1;fill-rule:nonzero;stroke:none"
                 id="path7796" />
            </g>
          </g>
          <g
             id="g7798"
             transform="matrix(0.03527778,0,0,-0.03527778,56.816908,155.3511)">
            <g
               id="g7800"
               clip-path="url(#clipPath7804)">
              <path
                 d="m 3214.54,2918.23 h 124.42 v 266.17 c 0,55.53 -45.02,100.55 -100.55,100.55 h -23.87 v -366.72"
                 style="fill:url(#linearGradient7816);fill-opacity:1;fill-rule:nonzero;stroke:none"
                 id="path7818" />
            </g>
          </g>
        </g>
      </g>
    </g>
  </g>
</svg>
